<svg width="109" height="18" viewBox="0 0 109 18" fill="none" xmlns="http://www.w3.org/2000/svg">
<g clip-path="url(#clip0_59_2462)">
<path d="M6.08157 15.9188C8.26504 15.583 9.55871 12.2132 8.97106 8.39209C8.38342 4.57101 6.13699 1.74564 3.95352 2.08144C1.77005 2.41724 0.47638 5.78704 1.06402 9.60811C1.65167 13.4292 3.8981 16.2546 6.08157 15.9188Z" fill="#FFAAE8"/>
<path d="M10.1419 15.9451C12.3336 16.2215 14.5025 13.3361 14.9861 9.5005C15.4698 5.66488 14.085 2.33145 11.8933 2.05509C9.70147 1.77873 7.53262 4.66407 7.04898 8.4997C6.56534 12.3353 7.95007 15.6687 10.1419 15.9451Z" fill="#FFAAE8"/>
<path d="M19.1136 15.6095C19.0951 15.6232 19.0761 15.6363 19.0568 15.6487C19.0374 15.6611 19.0176 15.6728 18.9974 15.6839C18.9772 15.6949 18.9566 15.7052 18.9357 15.7149C18.9148 15.7245 18.8936 15.7334 18.872 15.7416C18.8505 15.7497 18.8287 15.7571 18.8067 15.7638C18.7846 15.7705 18.7624 15.7764 18.74 15.7815C18.7175 15.7866 18.6949 15.791 18.6722 15.7945C18.6494 15.798 18.6266 15.8008 18.6036 15.8028C18.5807 15.8048 18.5577 15.806 18.5347 15.8064C18.5117 15.8068 18.4887 15.8064 18.4657 15.8052C18.4427 15.804 18.4198 15.802 18.3969 15.7992C18.3741 15.7965 18.3513 15.7929 18.3287 15.7885C18.3061 15.7842 18.2837 15.7791 18.2614 15.7732C18.2392 15.7673 18.2171 15.7606 18.1953 15.7532C18.1735 15.7458 18.152 15.7376 18.1308 15.7287C18.1096 15.7198 18.0887 15.7102 18.0681 15.6998C18.0475 15.6895 18.0273 15.6784 18.0075 15.6667C17.9877 15.655 17.9684 15.6426 17.9494 15.6295C17.9305 15.6164 17.912 15.6027 17.894 15.5883C17.876 15.574 17.8585 15.559 17.8415 15.5434C17.8246 15.5279 17.8082 15.5118 17.7923 15.4951C17.7765 15.4784 17.7612 15.4611 17.7465 15.4434C17.7319 15.4257 17.7178 15.4074 17.7044 15.3887C17.691 15.37 17.6783 15.3508 17.6662 15.3312C17.6542 15.3116 17.6428 15.2916 17.632 15.2712C17.6214 15.2508 17.6114 15.2301 17.6021 15.209C17.5929 15.1879 17.5843 15.1666 17.5765 15.1449C17.5687 15.1232 17.5617 15.1013 17.5554 15.0792C17.5492 15.0571 17.5437 15.0347 17.5389 15.0122C17.5342 14.9897 17.5302 14.967 17.527 14.9442C17.5239 14.9214 17.5215 14.8985 17.5199 14.8755C17.5183 14.8526 17.5175 14.8296 17.5175 14.8065V3.19348C17.5175 3.17045 17.5183 3.14746 17.5199 3.12449C17.5215 3.10153 17.5239 3.07864 17.527 3.05583C17.5302 3.03303 17.5342 3.01036 17.5389 2.98783C17.5437 2.9653 17.5492 2.94296 17.5554 2.92081C17.5617 2.89866 17.5687 2.87675 17.5765 2.85508C17.5843 2.83341 17.5929 2.81205 17.6021 2.79097C17.6114 2.7699 17.6214 2.74917 17.632 2.72878C17.6428 2.7084 17.6542 2.6884 17.6662 2.6688C17.6783 2.6492 17.691 2.63004 17.7044 2.61132C17.7178 2.5926 17.7319 2.57437 17.7465 2.55661C17.7612 2.53887 17.7765 2.52164 17.7923 2.50494C17.8082 2.48825 17.8246 2.47212 17.8415 2.45655C17.8585 2.44099 17.876 2.42604 17.894 2.41168C17.912 2.39732 17.9305 2.3836 17.9494 2.37052C17.9684 2.35744 17.9877 2.34503 18.0075 2.33329C18.0273 2.32155 18.0475 2.31051 18.0681 2.30016C18.0887 2.28981 18.1096 2.28019 18.1308 2.27128C18.152 2.26238 18.1735 2.25422 18.1953 2.2468C18.2171 2.23938 18.2392 2.23272 18.2614 2.22683C18.2837 2.22094 18.3061 2.21582 18.3287 2.21146C18.3513 2.20712 18.3741 2.20356 18.3969 2.20078C18.4198 2.198 18.4427 2.19602 18.4657 2.19482C18.4887 2.19363 18.5117 2.19323 18.5347 2.19363C18.5577 2.19403 18.5807 2.19521 18.6036 2.19719C18.6266 2.19918 18.6494 2.20195 18.6722 2.20551C18.6949 2.20907 18.7175 2.21341 18.74 2.21853C18.7624 2.22365 18.7846 2.22954 18.8067 2.2362C18.8287 2.24286 18.8505 2.25027 18.872 2.25843C18.8936 2.26659 18.9148 2.27549 18.9357 2.28511C18.9566 2.29474 18.9772 2.30508 18.9974 2.31612C19.0176 2.32717 19.0374 2.3389 19.0568 2.35132C19.0761 2.36374 19.0951 2.3768 19.1136 2.39052L26.9358 8.19705C26.9671 8.22022 26.9968 8.24514 27.0251 8.27179C27.0535 8.29844 27.0801 8.32665 27.1052 8.35641C27.1302 8.38618 27.1534 8.4173 27.1748 8.44976C27.1962 8.48224 27.2156 8.51584 27.2331 8.55058C27.2506 8.58532 27.266 8.62096 27.2793 8.65749C27.2926 8.69403 27.3038 8.73121 27.3127 8.76904C27.3217 8.80688 27.3285 8.84511 27.333 8.88373C27.3375 8.92236 27.3398 8.96112 27.3398 9C27.3398 9.03889 27.3375 9.07764 27.333 9.11627C27.3285 9.15489 27.3217 9.19312 27.3127 9.23096C27.3038 9.2688 27.2926 9.30598 27.2793 9.34251C27.266 9.37905 27.2506 9.41469 27.2331 9.44942C27.2156 9.48416 27.1962 9.51777 27.1748 9.55024C27.1534 9.58271 27.1302 9.61382 27.1052 9.64359C27.0801 9.67335 27.0535 9.70156 27.0251 9.72821C26.9968 9.75487 26.9671 9.77978 26.9358 9.80295L19.1136 15.6095Z" fill="#3578FF"/>
<path d="M34.8816 16.0001L32.3856 4.99208H35.9856L37.0256 11.8561L38.0976 6.86408H41.8256L42.9136 11.8561L43.9536 4.99208H47.5536L45.0576 16.0001H41.3296L39.9696 9.96808L38.6096 16.0001H34.8816ZM48.7216 16.0001V5.45608L52.0976 4.96008V9.63208C52.3216 9.07742 52.6736 8.64542 53.1536 8.33608C53.6336 8.02675 54.2096 7.87208 54.8816 7.87208C55.9269 7.87208 56.7376 8.23208 57.3136 8.95208C57.8896 9.67208 58.1776 10.6881 58.1776 12.0001V16.0001H54.8016V11.8241C54.8016 10.8748 54.4176 10.4001 53.6496 10.4001C53.1909 10.4001 52.8176 10.5681 52.5296 10.9041C52.2416 11.2401 52.0976 11.6907 52.0976 12.2561V16.0001H48.7216ZM63.2336 16.1281C62.4976 16.1281 61.8309 15.9494 61.2336 15.5921C60.6362 15.2347 60.1642 14.7414 59.8176 14.1121C59.4709 13.4828 59.2976 12.7627 59.2976 11.9521C59.2976 11.1414 59.4709 10.4321 59.8176 9.82408C60.1642 9.21608 60.6362 8.73875 61.2336 8.39208C61.8309 8.04542 62.4976 7.87208 63.2336 7.87208C63.7562 7.87208 64.2629 8.01608 64.7536 8.30408C65.2442 8.59208 65.6229 9.06675 65.8896 9.72808V7.98408H69.2176V16.0001H65.8576V14.5121C65.6016 15.0347 65.2602 15.4347 64.8336 15.7121C64.4069 15.9894 63.8736 16.1281 63.2336 16.1281ZM64.2736 13.6001C64.7109 13.6001 65.0842 13.4427 65.3936 13.1281C65.7029 12.8134 65.8576 12.4268 65.8576 11.9681C65.8576 11.5094 65.7029 11.1334 65.3936 10.8401C65.0842 10.5467 64.7109 10.4001 64.2736 10.4001C63.8149 10.4001 63.4309 10.5547 63.1216 10.8641C62.8122 11.1734 62.6576 11.5521 62.6576 12.0001C62.6576 12.4481 62.8122 12.8267 63.1216 13.1361C63.4309 13.4454 63.8149 13.6001 64.2736 13.6001ZM72.5136 16.0001L70.0176 4.99208H73.6176L74.6576 11.8561L75.7296 6.86408H79.4576L80.5456 11.8561L81.5856 4.99208H85.1856L82.6896 16.0001H78.9616L77.6016 9.96808L76.2416 16.0001H72.5136ZM86.3536 16.0001V5.45608L89.7296 4.96008V9.63208C89.9536 9.07742 90.3056 8.64542 90.7856 8.33608C91.2656 8.02675 91.8416 7.87208 92.5136 7.87208C93.5589 7.87208 94.3696 8.23208 94.9456 8.95208C95.5216 9.67208 95.8096 10.6881 95.8096 12.0001V16.0001H92.4336V11.8241C92.4336 10.8748 92.0496 10.4001 91.2816 10.4001C90.8229 10.4001 90.4496 10.5681 90.1616 10.9041C89.8736 11.2401 89.7296 11.6907 89.7296 12.2561V16.0001H86.3536ZM100.866 16.1281C100.13 16.1281 99.4629 15.9494 98.8656 15.5921C98.2682 15.2347 97.7962 14.7414 97.4496 14.1121C97.1029 13.4828 96.9296 12.7627 96.9296 11.9521C96.9296 11.1414 97.1029 10.4321 97.4496 9.82408C97.7962 9.21608 98.2682 8.73875 98.8656 8.39208C99.4629 8.04542 100.13 7.87208 100.866 7.87208C101.388 7.87208 101.895 8.01608 102.386 8.30408C102.876 8.59208 103.255 9.06675 103.522 9.72808V7.98408H106.85V16.0001H103.49V14.5121C103.234 15.0347 102.892 15.4347 102.466 15.7121C102.039 15.9894 101.506 16.1281 100.866 16.1281ZM101.906 13.6001C102.343 13.6001 102.716 13.4427 103.026 13.1281C103.335 12.8134 103.49 12.4268 103.49 11.9681C103.49 11.5094 103.335 11.1334 103.026 10.8401C102.716 10.5467 102.343 10.4001 101.906 10.4001C101.447 10.4001 101.063 10.5547 100.754 10.8641C100.444 11.1734 100.29 11.5521 100.29 12.0001C100.29 12.4481 100.444 12.8267 100.754 13.1361C101.063 13.4454 101.447 13.6001 101.906 13.6001Z" fill="white"/>
</g>
<defs>
<clipPath id="clip0_59_2462">
<rect width="108.018" height="18" fill="white"/>
</clipPath>
</defs>
</svg>
